<svg xmlns="http://www.w3.org/2000/svg" width="20" height="20" fill="none"><g clip-path="url(#a)"><path fill="#1C4980" d="M16.667 15c.916 0 1.658-.75 1.658-1.667l.008-9.166c0-.917-.75-1.667-1.666-1.667H3.333c-.916 0-1.666.75-1.666 1.667v9.166c0 .917.75 1.667 1.666 1.667H0c0 .917.75 1.667 1.667 1.667h16.666c.917 0 1.667-.75 1.667-1.667h-3.333ZM3.333 4.167h13.334v9.166H3.333V4.167ZM10 15.833A.836.836 0 0 1 9.167 15c0-.458.375-.833.833-.833.458 0 .833.375.833.833a.836.836 0 0 1-.833.833Z"/></g><defs><clipPath id="a"><path fill="#fff" d="M0 0h20v20H0z"/></clipPath></defs></svg>