<svg xmlns="http://www.w3.org/2000/svg" width="31" height="30" fill="none"><rect width="29" height="29" x="1.09" y=".5" fill="#3079E1" rx="14.5"/><path fill="#fff" d="M7.971 20.5V10.318h2.153v8.407h4.365V20.5H7.971Zm7.944 0V10.318h4.017c.772 0 1.43.148 1.973.443.544.291.958.697 1.243 1.218.289.517.433 1.113.433 1.79 0 .676-.146 1.272-.438 1.79-.291.516-.714.919-1.268 1.207-.55.289-1.216.433-1.998.433h-2.56v-1.725h2.212c.414 0 .756-.072 1.024-.214.272-.146.474-.346.607-.602.136-.258.203-.555.203-.89 0-.338-.067-.633-.203-.885a1.36 1.36 0 0 0-.607-.591c-.272-.143-.616-.214-1.034-.214h-1.452V20.5h-2.152Z"/><rect width="29" height="29" x="1.09" y=".5" stroke="#fff" rx="14.5"/></svg>