<svg xmlns="http://www.w3.org/2000/svg" width="30" height="30" fill="none"><rect width="29" height="29" x=".5" y=".5" fill="#E9407A" rx="14.5"/><path fill="#fff" d="M7.381 20.5V10.318h2.153v8.407h4.365V20.5H7.38Zm7.943 0V10.318h4.017c.773 0 1.43.148 1.974.443.544.291.958.697 1.243 1.218.288.517.433 1.113.433 1.79 0 .676-.146 1.272-.438 1.79-.292.516-.714.919-1.268 1.207-.55.289-1.216.433-1.998.433h-2.56v-1.725h2.212c.414 0 .755-.072 1.024-.214.272-.146.474-.346.606-.602.136-.258.204-.555.204-.89 0-.338-.068-.633-.204-.885a1.361 1.361 0 0 0-.606-.591c-.272-.143-.617-.214-1.034-.214h-1.452V20.5h-2.153Z"/><rect width="29" height="29" x=".5" y=".5" stroke="#fff" rx="14.5"/></svg>