<svg xmlns="http://www.w3.org/2000/svg" width="375" height="40" fill="none"><path fill="#fff" d="M0 0h375v40H0z"/><path fill="#000" d="M19.867 25.544c2.688 0 4.285-2.102 4.285-5.661 0-1.34-.257-2.468-.747-3.34-.71-1.355-1.934-2.087-3.48-2.087C17.627 14.456 16 16 16 18.169c0 2.036 1.465 3.516 3.479 3.516 1.238 0 2.241-.579 2.74-1.582h.124c0 2.416-.916 3.86-2.461 3.86-.908 0-1.612-.499-1.853-1.297h-1.883c.315 1.736 1.788 2.878 3.721 2.878Zm.066-5.36c-1.216 0-2.08-.865-2.08-2.074 0-1.179.908-2.08 2.087-2.08 1.18 0 2.088.916 2.088 2.11 0 1.179-.886 2.043-2.095 2.043Zm7.31 5.258c.696 0 1.172-.498 1.172-1.157 0-.667-.476-1.158-1.172-1.158-.688 0-1.172.491-1.172 1.158 0 .659.483 1.157 1.172 1.157Zm0-5.493c.696 0 1.172-.491 1.172-1.15 0-.667-.476-1.157-1.172-1.157-.688 0-1.172.49-1.172 1.157 0 .659.483 1.15 1.172 1.15Zm8.027 5.339h1.81v-1.97h1.428V21.72H37.08v-7h-2.666c-1.868 2.813-3.355 5.164-4.307 6.914v1.685h5.164v1.97Zm-3.413-3.633a79.594 79.594 0 0 1 3.34-5.398h.103v5.508h-3.442v-.11Zm10.679 3.633h1.89V14.72h-1.882l-2.761 1.934v1.816l2.629-1.846h.124v8.665Z"/><g clip-path="url(#a)"><path fill="#000" fill-rule="evenodd" d="M305.445 15.111h-.912a.915.915 0 0 0-.912.917v7.944c0 .506.409.917.912.917h.912c.503 0 .912-.41.912-.917v-7.944a.915.915 0 0 0-.912-.917Zm-5.167 2.139h.912c.503 0 .912.41.912.917v5.805a.915.915 0 0 1-.912.917h-.912a.915.915 0 0 1-.912-.917v-5.805c0-.507.409-.917.912-.917Zm-3.343 2.139h-.912a.914.914 0 0 0-.911.916v3.667c0 .506.408.917.911.917h.912c.504 0 .912-.41.912-.917v-3.667a.914.914 0 0 0-.912-.916Zm-4.255 1.833h-.912a.914.914 0 0 0-.911.917v1.833c0 .506.408.917.911.917h.912c.504 0 .912-.41.912-.917V22.14a.914.914 0 0 0-.912-.917Zm28.639-4.16c2.021 0 3.964.78 5.428 2.18a.28.28 0 0 0 .395-.003l1.054-1.07a.296.296 0 0 0-.002-.418 9.898 9.898 0 0 0-13.75 0 .296.296 0 0 0-.002.418l1.054 1.07a.28.28 0 0 0 .395.003 7.856 7.856 0 0 1 5.428-2.18Zm0 3.479c1.11 0 2.181.415 3.004 1.164a.282.282 0 0 0 .395-.005l1.053-1.07a.297.297 0 0 0-.005-.42 6.501 6.501 0 0 0-8.891 0 .296.296 0 0 0-.004.42l1.052 1.07a.282.282 0 0 0 .395.005 4.46 4.46 0 0 1 3.001-1.164Zm2.109 2.341a.288.288 0 0 1-.085.211l-1.822 1.848a.283.283 0 0 1-.404 0l-1.821-1.848a.289.289 0 0 1 .009-.419 3.106 3.106 0 0 1 4.029 0 .284.284 0 0 1 .094.208Z" clip-rule="evenodd"/><path stroke="#000" d="M335.996 17.725c0-1.097.885-1.987 1.976-1.987h15.196a1.98 1.98 0 0 1 1.975 1.987v5.5a1.98 1.98 0 0 1-1.975 1.986h-15.196a1.981 1.981 0 0 1-1.976-1.986v-5.5Z" opacity=".35"/><path fill="#000" d="M356.504 18.64v3.668a1.99 1.99 0 0 0 1.211-1.834c0-.8-.477-1.523-1.211-1.833Z" opacity=".4"/><path fill="#F7CE45" d="M337.358 18.122c0-.557.449-1.009 1.002-1.009h14.406c.554 0 1.003.452 1.003 1.009v4.705c0 .557-.449 1.009-1.003 1.009H338.36a1.005 1.005 0 0 1-1.002-1.009v-4.705Z"/></g><defs><clipPath id="a"><path fill="#fff" d="M289.857 14.5H359v11h-69.143z"/></clipPath></defs></svg>